<?xml version="1.0" standalone="no"?>
<!DOCTYPE svg PUBLIC "-//W3C//DTD SVG 20010904//EN"
 "http://www.w3.org/TR/2001/REC-SVG-20010904/DTD/svg10.dtd">
<svg version="1.0" xmlns="http://www.w3.org/2000/svg"
 width="750.000000pt" height="750.000000pt" viewBox="0 0 750.000000 750.000000"
 preserveAspectRatio="xMidYMid meet">

<g transform="translate(0.000000,750.000000) scale(0.100000,-0.100000)"
fill="#fff" stroke="none">
<path d="M2819 5555 c-177 -28 -280 -62 -417 -137 -170 -94 -307 -222 -419
-392 -166 -251 -222 -567 -158 -877 13 -65 34 -138 45 -161 11 -23 17 -45 13
-49 -5 -4 -44 -17 -88 -28 -44 -11 -129 -34 -190 -50 -60 -16 -180 -48 -265
-71 -85 -22 -161 -47 -169 -55 -12 -12 -12 -19 -2 -41 9 -21 17 -25 39 -21 35
6 241 60 500 131 111 31 206 56 210 56 4 0 22 -27 40 -59 110 -201 348 -404
576 -492 141 -54 220 -70 374 -76 229 -9 398 25 577 115 81 40 201 120 229
151 19 21 51 28 58 13 8 -20 142 -112 223 -154 197 -100 349 -133 585 -125
164 6 253 23 380 73 302 119 551 374 670 686 40 104 70 280 70 406 0 126 -30
298 -68 400 -15 38 -17 54 -9 57 58 18 102 30 232 64 424 110 470 124 478 144
7 20 -11 57 -29 57 -9 0 -73 -16 -143 -35 -299 -81 -574 -155 -581 -155 -4 0
-19 22 -34 49 -42 78 -157 221 -224 280 -212 184 -407 269 -694 301 -265 29
-570 -60 -803 -235 -40 -30 -77 -55 -81 -55 -5 0 -19 11 -31 24 -12 13 -53 44
-90 69 -169 113 -342 173 -565 197 -117 12 -129 12 -239 -5z m348 -61 c195
-39 334 -102 484 -218 l60 -47 -47 -52 c-167 -186 -269 -420 -294 -672 -6 -64
-9 -128 -6 -141 3 -12 2 -25 -3 -28 -8 -5 -1075 -294 -1301 -352 -52 -14 -102
-27 -110 -29 -19 -6 -28 17 -70 180 -27 103 -32 138 -32 250 -2 359 157 685
439 897 175 131 358 203 593 232 59 7 205 -3 287 -20z m1573 0 c250 -50 467
-174 631 -361 49 -56 133 -175 144 -204 6 -17 -4 -20 -415 -129 -146 -38 -321
-86 -390 -105 -155 -43 -576 -155 -584 -155 -3 0 -6 14 -6 31 0 41 -33 168
-64 247 -52 132 -134 263 -235 375 l-35 39 24 19 c228 182 509 277 770 263 47
-3 119 -12 160 -20z m-938 -356 c96 -115 149 -201 203 -332 35 -84 79 -272 66
-280 -8 -5 -138 -41 -256 -71 -49 -13 -156 -41 -237 -64 -81 -23 -152 -41
-158 -41 -14 0 -13 64 6 193 24 172 79 321 169 461 41 64 142 186 155 186 5 0
28 -24 52 -52z m1768 -303 c0 -3 16 -61 36 -128 81 -279 58 -533 -72 -803
-114 -237 -271 -395 -510 -511 -172 -83 -400 -132 -550 -119 -220 20 -429 95
-588 211 -112 82 -106 67 -50 132 188 218 279 438 293 707 l6 129 40 13 c36
11 216 60 595 160 152 41 297 80 580 158 201 55 220 60 220 51z m-1485 -482
c-21 -277 -123 -526 -289 -708 l-46 -50 -41 45 c-93 101 -164 216 -220 355
-34 85 -73 256 -61 266 7 6 102 34 237 69 287 75 379 101 384 106 2 2 13 4 24
4 18 0 18 -5 12 -87z m-705 -142 c0 -51 53 -229 95 -316 45 -95 120 -208 185
-278 50 -55 52 -58 34 -72 -174 -136 -312 -202 -508 -244 -154 -34 -243 -36
-381 -12 -149 26 -220 48 -327 102 -146 74 -262 162 -356 272 -57 67 -142 189
-142 204 0 12 29 20 400 119 446 118 797 212 890 239 112 32 110 32 110 -14z"/>
<path d="M5877 2780 c-117 -30 -189 -116 -190 -227 0 -96 66 -173 211 -245 79
-39 132 -89 132 -123 0 -40 -20 -71 -60 -94 -47 -26 -61 -26 -156 -1 -42 11
-80 22 -86 23 -15 3 -30 -57 -26 -105 3 -38 6 -42 43 -55 173 -61 358 -13 429
110 34 59 42 123 22 189 -21 75 -83 135 -193 189 -109 54 -147 91 -139 133 13
65 80 88 179 63 34 -9 72 -19 83 -22 20 -6 23 -1 33 57 6 36 11 69 11 75 0 27
-219 51 -293 33z"/>
<path d="M668 2775 c-10 -11 -10 -843 0 -847 4 -2 42 -2 85 0 l77 4 0 163 0
162 109 5 c102 4 112 6 167 39 85 50 124 117 124 212 0 82 -18 125 -75 183
-62 62 -111 75 -310 81 -93 3 -173 2 -177 -2z m333 -168 c44 -30 61 -63 53
-107 -11 -68 -62 -100 -159 -100 l-65 0 0 115 0 115 69 0 c54 0 75 -5 102 -23z"/>
<path d="M1506 2753 c-8 -16 -50 -118 -94 -228 -44 -110 -116 -289 -160 -398
-44 -108 -77 -199 -73 -201 3 -2 43 -1 88 2 l82 5 21 61 c12 33 29 77 38 96
l17 35 163 0 164 0 34 -90 c19 -49 41 -94 48 -100 7 -5 28 -10 47 -9 19 1 55
2 80 2 l47 2 -48 118 c-27 64 -100 245 -162 402 -63 157 -120 295 -126 308
-11 19 -20 22 -82 22 -66 0 -70 -2 -84 -27z m127 -308 c20 -55 42 -117 51
-137 9 -21 16 -40 16 -43 0 -3 -49 -5 -110 -5 -85 0 -110 3 -110 13 0 8 20 69
45 138 25 68 48 130 51 138 8 24 20 1 57 -104z"/>
<path d="M2080 2357 c0 -384 2 -426 16 -429 9 -2 45 -1 80 0 l64 4 2 181 3
182 55 -3 c30 -2 62 -9 71 -18 20 -18 65 -111 115 -240 l39 -102 38 -5 c32 -4
147 2 147 8 0 0 -8 19 -19 41 -10 21 -46 103 -81 182 -34 78 -71 153 -81 166
l-19 24 35 23 c20 13 48 42 63 63 24 35 27 49 27 117 0 70 -3 82 -30 121 -20
29 -48 52 -85 71 -53 26 -64 28 -248 34 l-192 6 0 -426z m350 254 c56 -40 47
-131 -16 -157 -19 -8 -65 -14 -104 -14 l-70 0 0 94 0 95 43 4 c63 6 119 -2
147 -22z"/>
<path d="M3091 2758 c-5 -13 -81 -203 -170 -423 -88 -219 -157 -403 -153 -407
4 -4 43 -4 85 0 l78 7 25 65 c14 36 32 80 39 98 l15 32 154 0 c112 0 158 -4
167 -12 6 -7 27 -53 48 -103 l36 -90 85 3 c46 2 86 4 87 6 2 2 -10 34 -26 72
-17 38 -82 202 -146 364 -64 162 -128 321 -142 353 l-27 57 -73 0 c-67 0 -74
-2 -82 -22z m138 -343 c28 -76 51 -143 51 -147 0 -4 -49 -8 -110 -8 -60 0
-110 4 -110 9 0 10 96 267 106 282 3 6 7 9 9 7 2 -2 26 -66 54 -143z"/>
<path d="M3447 2774 c-3 -3 8 -43 25 -88 17 -44 38 -106 48 -136 10 -30 48
-140 85 -245 37 -104 82 -233 100 -285 l33 -95 80 -1 c44 -1 86 2 92 6 15 9
310 812 310 842 0 5 -37 8 -82 6 l-83 -3 -39 -110 c-72 -205 -105 -300 -142
-407 -20 -59 -39 -106 -43 -103 -4 2 -54 144 -111 314 l-104 311 -81 0 c-45 0
-84 -3 -88 -6z"/>
<path d="M4325 2767 c-3 -6 -4 -199 -3 -427 l3 -415 230 -3 c127 -1 240 0 253
3 20 5 22 11 22 76 l0 71 -147 -2 c-82 -1 -158 -2 -170 -1 -22 1 -23 4 -23
116 l0 115 155 0 155 0 0 70 0 70 -155 0 -155 0 0 94 0 93 61 7 c34 3 111 6
170 6 l109 0 0 70 0 70 -250 0 c-191 0 -252 -3 -255 -13z"/>
<path d="M4982 2355 l3 -429 55 1 c112 1 99 -22 102 185 l3 182 59 -3 c79 -4
89 -17 177 -235 26 -65 54 -123 61 -127 19 -12 168 -11 168 1 0 19 -172 400
-181 400 -5 0 -9 7 -9 15 0 8 4 15 9 15 19 0 72 53 91 91 26 50 26 140 1 195
-22 49 -78 97 -131 113 -21 6 -122 14 -224 18 l-186 6 2 -428z m357 249 c24
-20 31 -34 31 -61 0 -75 -42 -103 -155 -103 l-75 0 0 95 0 95 84 0 c76 0 87
-3 115 -26z"/>
<path d="M6330 2350 l0 -430 88 0 c49 0 163 3 253 6 l164 7 -3 70 -4 69 -146
-2 c-81 -2 -157 -2 -170 -2 -22 2 -23 4 -20 115 l3 112 158 3 159 3 -6 67 c-3
37 -5 68 -6 70 0 1 -70 2 -155 2 l-155 0 0 94 0 93 68 6 c37 4 113 7 170 7
l102 0 0 70 0 70 -250 0 -250 0 0 -430z"/>
</g>
</svg>
